<?xml version="1.0" encoding="UTF-8" standalone="no"?>
<!DOCTYPE svg PUBLIC "-//W3C//DTD SVG 1.1//EN" "http://www.w3.org/Graphics/SVG/1.1/DTD/svg11.dtd">
<svg width="100%" height="100%" viewBox="0 0 147 49" version="1.1" xmlns="http://www.w3.org/2000/svg" xmlns:xlink="http://www.w3.org/1999/xlink" xml:space="preserve" style="fill-rule:evenodd;clip-rule:evenodd;stroke-linejoin:round;stroke-miterlimit:1.41421;">
    <rect x="24.1" y="23.1" width="95" height="2" style="fill:rgb(153,153,153);"/>
    <path d="M24.1,48.3C10.8,48.3 0,37.4 0,24.1C0,10.8 10.8,0 24.1,0C37.4,0 48.2,10.8 48.2,24.1C48.2,37.4 37.4,48.3 24.1,48.3ZM24.1,6C14.1,6 6,14.2 6,24.1C6,34 14.1,42.2 24.1,42.2C34.1,42.2 42.2,34.1 42.2,24.1C42.2,14.1 34.1,6 24.1,6Z" style="fill:rgb(255,98,0);fill-rule:nonzero;"/>
    <circle cx="24.1" cy="24.2" r="4" style="fill:rgb(255,98,0);"/>
    <path d="M59.7,48.3L59.7,0L101.5,24.1L59.7,48.3ZM65.7,10.4L65.7,37.9L89.5,24.1L65.7,10.4Z" style="fill:rgb(255,185,0);fill-rule:nonzero;"/>
    <circle cx="74.1" cy="24.2" r="4" style="fill:rgb(255,185,0);"/>
    <path d="M104.7,48.3L104.7,0L146.5,24.1L104.7,48.3ZM110.7,10.4L110.7,37.9L134.5,24.1L110.7,10.4Z" style="fill:rgb(0,129,255);fill-rule:nonzero;"/>
    <circle cx="119.1" cy="24.2" r="4" style="fill:rgb(0,129,255);"/>
</svg>
