<?xml version="1.0" encoding="UTF-8" standalone="no"?>
<!DOCTYPE svg PUBLIC "-//W3C//DTD SVG 1.1//EN" "http://www.w3.org/Graphics/SVG/1.1/DTD/svg11.dtd">
<svg width="100%" height="100%" viewBox="0 0 147 73" version="1.1" xmlns="http://www.w3.org/2000/svg" xmlns:xlink="http://www.w3.org/1999/xlink" xml:space="preserve" style="fill-rule:evenodd;clip-rule:evenodd;stroke-linejoin:round;stroke-miterlimit:1.41421;">
    <g transform="matrix(1,0,0,1,-53.2983,-225.85)">
        <g transform="matrix(1,0,0,1,53.2983,225.85)">
            <rect x="24.1" y="23.1" width="95" height="2" style="fill:rgb(153,153,153);"/>
        </g>
        <g transform="matrix(1,0,0,1,53.2983,225.85)">
            <path d="M24.1,48.3C10.8,48.3 0,37.4 0,24.1C0,10.8 10.8,0 24.1,0C37.4,0 48.2,10.8 48.2,24.1C48.2,37.4 37.4,48.3 24.1,48.3ZM24.1,6C14.1,6 6,14.2 6,24.1C6,34 14.1,42.2 24.1,42.2C34.1,42.2 42.2,34.1 42.2,24.1C42.2,14.1 34.1,6 24.1,6Z" style="fill:rgb(255,98,0);fill-rule:nonzero;"/>
        </g>
        <g transform="matrix(1,0,0,1,53.2983,225.85)">
            <circle cx="24.1" cy="24.2" r="4" style="fill:rgb(255,98,0);"/>
        </g>
        <g transform="matrix(1,0,0,1,53.2983,225.85)">
            <path d="M59.7,48.3L59.7,0L101.5,24.1L59.7,48.3ZM65.7,10.4L65.7,37.9L89.5,24.1L65.7,10.4Z" style="fill:rgb(255,185,0);fill-rule:nonzero;"/>
        </g>
        <g transform="matrix(1,0,0,1,53.2983,225.85)">
            <circle cx="74.1" cy="24.2" r="4" style="fill:rgb(255,185,0);"/>
        </g>
        <g transform="matrix(1,0,0,1,53.2983,225.85)">
            <path d="M104.7,48.3L104.7,0L146.5,24.1L104.7,48.3ZM110.7,10.4L110.7,37.9L134.5,24.1L110.7,10.4Z" style="fill:rgb(0,129,255);fill-rule:nonzero;"/>
        </g>
        <g transform="matrix(1,0,0,1,53.2983,225.85)">
            <circle cx="119.1" cy="24.2" r="4" style="fill:rgb(0,129,255);"/>
        </g>
    </g>
    <g>
        <g transform="matrix(1.07908,0,0,1.07908,-234.496,-131.728)">
            <path d="M228.251,184.083C228.251,185.835 227.817,187.182 226.948,188.123C226.079,189.064 224.834,189.535 223.212,189.535C221.59,189.535 220.345,189.064 219.476,188.123C218.607,187.182 218.173,185.831 218.173,184.069C218.173,182.307 218.609,180.962 219.48,180.033C220.351,179.103 221.6,178.639 223.226,178.639C224.853,178.639 226.097,179.107 226.959,180.043C227.82,180.98 228.251,182.326 228.251,184.083ZM220.526,184.083C220.526,185.266 220.75,186.156 221.199,186.755C221.648,187.353 222.319,187.653 223.212,187.653C225.003,187.653 225.898,186.463 225.898,184.083C225.898,181.699 225.007,180.507 223.226,180.507C222.333,180.507 221.66,180.807 221.206,181.408C220.753,182.009 220.526,182.901 220.526,184.083Z" style="fill:rgb(255,98,0);fill-rule:nonzero;"/>
            <path d="M233.06,183.786L233.798,183.786C234.488,183.786 235.005,183.65 235.348,183.377C235.69,183.105 235.862,182.708 235.862,182.186C235.862,181.66 235.718,181.272 235.431,181.021C235.144,180.77 234.694,180.644 234.081,180.644L233.06,180.644L233.06,183.786ZM238.128,182.107C238.128,183.246 237.772,184.117 237.06,184.72C236.348,185.324 235.336,185.625 234.023,185.625L233.06,185.625L233.06,189.39L230.815,189.39L230.815,178.805L234.196,178.805C235.48,178.805 236.456,179.082 237.125,179.634C237.793,180.187 238.128,181.011 238.128,182.107Z" style="fill:rgb(255,98,0);fill-rule:nonzero;"/>
            <path d="M246.593,189.39L240.497,189.39L240.497,178.805L246.593,178.805L246.593,180.644L242.741,180.644L242.741,182.968L246.325,182.968L246.325,184.807L242.741,184.807L242.741,187.537L246.593,187.537L246.593,189.39Z" style="fill:rgb(255,98,0);fill-rule:nonzero;"/>
            <path d="M258.562,189.39L255.709,189.39L251.105,181.383L251.039,181.383C251.131,182.797 251.177,183.806 251.177,184.409L251.177,189.39L249.172,189.39L249.172,178.805L252.002,178.805L256.6,186.733L256.65,186.733C256.578,185.358 256.542,184.385 256.542,183.815L256.542,178.805L258.562,178.805L258.562,189.39Z" style="fill:rgb(255,98,0);fill-rule:nonzero;"/>
        </g>
        <g transform="matrix(1.07908,0,0,1.07908,-182.184,-131.572)">
            <path d="M227.426,183.996C227.426,185.739 226.93,187.073 225.938,188C224.946,188.927 223.514,189.39 221.641,189.39L218.644,189.39L218.644,178.805L221.967,178.805C223.695,178.805 225.036,179.262 225.992,180.174C226.948,181.086 227.426,182.36 227.426,183.996ZM225.094,184.054C225.094,181.781 224.09,180.644 222.083,180.644L220.888,180.644L220.888,187.537L221.851,187.537C224.013,187.537 225.094,186.376 225.094,184.054Z" style="fill:rgb(255,185,0);fill-rule:nonzero;"/>
            <path d="M236.325,189.39L235.558,186.871L231.699,186.871L230.931,189.39L228.513,189.39L232.249,178.762L234.993,178.762L238.743,189.39L236.325,189.39ZM235.022,184.988C234.312,182.705 233.913,181.414 233.824,181.115C233.734,180.816 233.67,180.579 233.632,180.405C233.472,181.023 233.016,182.551 232.263,184.988L235.022,184.988Z" style="fill:rgb(255,185,0);fill-rule:nonzero;"/>
            <path d="M244.022,189.39L241.778,189.39L241.778,180.673L238.904,180.673L238.904,178.805L246.897,178.805L246.897,180.673L244.022,180.673L244.022,189.39Z" style="fill:rgb(255,185,0);fill-rule:nonzero;"/>
            <path d="M254.869,189.39L254.102,186.871L250.243,186.871L249.476,189.39L247.057,189.39L250.793,178.762L253.537,178.762L257.288,189.39L254.869,189.39ZM253.566,184.988C252.857,182.705 252.457,181.414 252.368,181.115C252.279,180.816 252.215,180.579 252.176,180.405C252.017,181.023 251.561,182.551 250.808,184.988L253.566,184.988Z" style="fill:rgb(255,185,0);fill-rule:nonzero;"/>
        </g>
        <g transform="matrix(1.07908,0,0,1.07908,-131.234,-131.572)">
            <path d="M227.426,183.996C227.426,185.739 226.93,187.073 225.938,188C224.946,188.927 223.514,189.39 221.641,189.39L218.644,189.39L218.644,178.805L221.967,178.805C223.695,178.805 225.036,179.262 225.992,180.174C226.948,181.086 227.426,182.36 227.426,183.996ZM225.094,184.054C225.094,181.781 224.09,180.644 222.083,180.644L220.888,180.644L220.888,187.537L221.851,187.537C224.013,187.537 225.094,186.376 225.094,184.054Z" style="fill:rgb(0,129,255);fill-rule:nonzero;"/>
            <path d="M236.325,189.39L235.558,186.871L231.699,186.871L230.931,189.39L228.513,189.39L232.249,178.762L234.993,178.762L238.743,189.39L236.325,189.39ZM235.022,184.988C234.312,182.705 233.913,181.414 233.824,181.115C233.734,180.816 233.67,180.579 233.632,180.405C233.472,181.023 233.016,182.551 232.263,184.988L235.022,184.988Z" style="fill:rgb(0,129,255);fill-rule:nonzero;"/>
            <path d="M243.306,183.164L245.514,178.805L247.932,178.805L244.421,185.271L244.421,189.39L242.191,189.39L242.191,185.343L238.679,178.805L241.112,178.805L243.306,183.164Z" style="fill:rgb(0,129,255);fill-rule:nonzero;"/>
        </g>
    </g>
</svg>
