<svg xmlns="http://www.w3.org/2000/svg" height="24" viewBox="0 0 206.877 29.07"><g fill="#FFF"><path d="M22.02 12.09c0-3.08-1.06-5.655-3.18-7.725-2.12-2.07-4.73-3.105-7.83-3.105-3.1 0-5.71 1.035-7.83 3.105C1.06 6.435 0 9.01 0 12.09s1.06 5.655 3.18 7.725c2.12 2.07 4.73 3.105 7.83 3.105 3.1 0 5.71-1.035 7.83-3.105 2.12-2.07 3.18-4.645 3.18-7.725zm-6.57 4.785c-1.2 1.31-2.676 1.965-4.426 1.965S7.8 18.185 6.6 16.875s-1.8-2.9-1.8-4.77.6-3.465 1.8-4.785 2.674-1.98 4.424-1.98S14.25 6 15.45 7.32c1.2 1.32 1.8 2.916 1.8 4.785 0 1.87-.6 3.46-1.8 4.77zM28.38 20.58c1.2 1.58 2.784 2.37 4.755 2.37 1.97 0 3.69-.8 5.16-2.4 1.47-1.6 2.205-3.59 2.205-5.97s-.735-4.355-2.205-5.925C36.825 7.085 35.15 6.3 33.27 6.3c-1.88 0-3.51.69-4.89 2.07v-1.8h-4.5v19.832h4.5V20.58zm1.034-9.195c.73-.87 1.625-1.305 2.686-1.305 1.06 0 1.97.44 2.73 1.32s1.14 1.97 1.14 3.27-.39 2.365-1.17 3.195c-.78.83-1.69 1.245-2.73 1.245s-1.925-.415-2.655-1.245c-.73-.83-1.095-1.9-1.095-3.21s.364-2.4 1.094-3.27zM49.934 22.95c2.45 0 4.586-.86 6.405-2.58l-2.522-2.73c-1.02 1.06-2.32 1.59-3.9 1.59-.978 0-1.86-.28-2.64-.84s-1.24-1.28-1.38-2.16h11.76v-2.4c0-2.34-.774-4.18-2.324-5.52-1.55-1.34-3.436-2.01-5.654-2.01-2.22 0-4.146.75-5.775 2.25-1.63 1.5-2.445 3.52-2.445 6.06 0 2.54.8 4.565 2.4 6.075 1.6 1.51 3.624 2.265 6.074 2.265zM47.31 10.83c.74-.54 1.554-.81 2.444-.81s1.645.26 2.266.78c.62.52.98 1.26 1.08 2.22h-7.08c.12-.92.548-1.65 1.29-2.19zM63.898 13.71c0-1.26.335-2.215 1.005-2.865.67-.65 1.455-.975 2.355-.975 1.82 0 2.73 1.24 2.73 3.72v9.12h4.5V12.9c0-2-.575-3.6-1.726-4.8-1.15-1.2-2.575-1.8-4.275-1.8-1.7 0-3.23.69-4.59 2.07v-1.8h-4.5v16.14h4.5v-9zM86.924 18.255c-.49.37-1.166.555-2.025.555-1.92 0-4.01-.99-6.27-2.97l-2.79 3.42c2.658 2.46 5.648 3.69 8.97 3.69 2.3 0 4.154-.585 5.564-1.755 1.41-1.17 2.114-2.695 2.114-4.575s-.55-3.31-1.65-4.29c-1.1-.98-2.645-1.715-4.635-2.205-1.99-.49-3.26-.915-3.81-1.275-.55-.36-.825-.845-.825-1.455s.226-1.1.676-1.47c.45-.37 1.064-.555 1.845-.555 1.938 0 3.818.69 5.64 2.07l2.37-3.42c-1.04-.88-2.262-1.56-3.66-2.04-1.4-.48-2.8-.72-4.2-.72-2.14 0-3.926.54-5.355 1.62-1.43 1.08-2.146 2.615-2.146 4.605s.564 3.45 1.694 4.38 2.915 1.686 5.355 2.265c1.538.38 2.568.755 3.09 1.125.52.37.778.87.778 1.5s-.244 1.13-.734 1.5zM99.027 20.58c1.2 1.58 2.785 2.37 4.756 2.37 1.97 0 3.69-.8 5.16-2.4 1.47-1.6 2.205-3.59 2.205-5.97s-.736-4.355-2.205-5.925c-1.47-1.57-3.146-2.355-5.025-2.355-1.88 0-3.51.69-4.89 2.07v-1.8h-4.5v19.832h4.5V20.58zm1.035-9.195c.73-.87 1.625-1.305 2.686-1.305 1.06 0 1.97.44 2.73 1.32.76.88 1.14 1.97 1.14 3.27s-.39 2.365-1.17 3.195c-.78.83-1.69 1.245-2.73 1.245s-1.925-.415-2.655-1.245c-.73-.83-1.095-1.9-1.095-3.21s.364-2.4 1.094-3.27zM120.582 22.95c2.45 0 4.586-.86 6.406-2.58l-2.52-2.73c-1.02 1.06-2.32 1.59-3.9 1.59-.98 0-1.86-.28-2.64-.84-.78-.56-1.24-1.28-1.38-2.16h11.76v-2.4c0-2.34-.776-4.18-2.325-5.52-1.55-1.34-3.436-2.01-5.654-2.01-2.222 0-4.147.75-5.776 2.25-1.63 1.5-2.445 3.52-2.445 6.06 0 2.54.798 4.565 2.4 6.075 1.597 1.51 3.623 2.265 6.072 2.265zm-2.625-12.12c.74-.54 1.555-.81 2.445-.81s1.645.26 2.266.78c.62.52.98 1.26 1.08 2.22h-7.08c.12-.92.55-1.65 1.29-2.19zM134.547 13.71c0-1.26.336-2.215 1.006-2.865.67-.65 1.455-.975 2.355-.975 1.818 0 2.73 1.24 2.73 3.72v9.12h4.5V12.9c0-2-.575-3.6-1.726-4.8-1.15-1.2-2.574-1.8-4.275-1.8-1.7 0-3.23.69-4.59 2.07v-1.8h-4.5v16.14h4.5v-9zM154.182 22.95c1.91 0 3.496-.79 4.756-2.37v2.13h4.5V.45h-4.5v7.92c-1.24-1.38-2.84-2.07-4.8-2.07s-3.67.765-5.13 2.295c-1.46 1.53-2.19 3.495-2.19 5.895s.75 4.41 2.25 6.03 3.203 2.43 5.114 2.43zm-1.694-11.55c.76-.88 1.668-1.32 2.73-1.32s1.954.435 2.685 1.305c.73.87 1.096 1.96 1.096 3.27s-.366 2.38-1.097 3.21c-.73.83-1.615 1.245-2.654 1.245-1.042 0-1.952-.415-2.73-1.245-.78-.83-1.17-1.895-1.17-3.195-.002-1.3.377-2.39 1.138-3.27zM168.447 5.28c.74 0 1.365-.255 1.875-.765s.764-1.135.764-1.875-.254-1.365-.764-1.875S169.188 0 168.447 0s-1.365.255-1.875.765-.766 1.135-.766 1.875.256 1.365.766 1.875 1.135.765 1.875.765zM166.197 6.57h4.5v16.14h-4.5zM177.957 13.71c0-1.26.334-2.215 1.004-2.865.67-.65 1.456-.975 2.356-.975 1.82 0 2.73 1.24 2.73 3.72v9.12h4.5V12.9c0-2-.576-3.6-1.725-4.8-1.15-1.2-2.575-1.8-4.274-1.8-1.7 0-3.23.69-4.59 2.07v-1.8h-4.5v16.14h4.5v-9zM202.377 6.54v2.13c-1.26-1.58-2.85-2.37-4.77-2.37s-3.627.765-5.115 2.295c-1.49 1.53-2.236 3.49-2.236 5.88 0 2.39.725 4.3 2.176 5.73 1.45 1.43 3.23 2.145 5.34 2.145s3.875-.79 5.295-2.37c0 1.78-.48 3.08-1.44 3.9-.96.82-2.265 1.23-3.915 1.23-1.648 0-3.215-.56-4.695-1.68l-1.738 3.39c.938.72 2.032 1.275 3.284 1.665 1.248.39 2.475.585 3.674.585 2.26 0 4.22-.66 5.88-1.98.84-.64 1.51-1.52 2.01-2.64.5-1.12.75-2.4.75-3.84V6.54h-4.5zm-1.02 10.86c-.72.78-1.62 1.17-2.7 1.17s-1.995-.395-2.745-1.185-1.125-1.825-1.125-3.105.385-2.29 1.154-3.03c.77-.74 1.687-1.11 2.747-1.11 1.06 0 1.95.37 2.67 1.11.72.74 1.08 1.755 1.08 3.045s-.36 2.325-1.08 3.105z"/></g></svg>
